<svg width="110" height="30" viewBox="0 0 110 30" fill="none" xmlns="http://www.w3.org/2000/svg">
<path d="M9.72998 14.3359V18.5C9.58936 18.7083 9.3654 18.9427 9.05811 19.2031C8.75081 19.4583 8.32633 19.6823 7.78467 19.875C7.24821 20.0625 6.5555 20.1562 5.70654 20.1562C5.01383 20.1562 4.37581 20.0365 3.79248 19.7969C3.21436 19.5521 2.71175 19.1979 2.28467 18.7344C1.86279 18.2656 1.53467 17.6979 1.30029 17.0312C1.07113 16.3594 0.956543 15.599 0.956543 14.75V13.8672C0.956543 13.0182 1.0555 12.2604 1.25342 11.5938C1.45654 10.9271 1.75342 10.362 2.14404 9.89844C2.53467 9.42969 3.01383 9.07552 3.58154 8.83594C4.14925 8.59115 4.80029 8.46875 5.53467 8.46875C6.40446 8.46875 7.13102 8.61979 7.71436 8.92188C8.3029 9.21875 8.76123 9.63021 9.08936 10.1562C9.42269 10.6823 9.63623 11.2812 9.72998 11.9531H8.22217C8.15446 11.5417 8.01904 11.1667 7.81592 10.8281C7.618 10.4896 7.33415 10.2188 6.96436 10.0156C6.59456 9.80729 6.118 9.70312 5.53467 9.70312C5.00863 9.70312 4.5529 9.79948 4.16748 9.99219C3.78206 10.1849 3.46436 10.4609 3.21436 10.8203C2.96436 11.1797 2.77686 11.6146 2.65186 12.125C2.53206 12.6354 2.47217 13.2109 2.47217 13.8516V14.75C2.47217 15.4062 2.54769 15.9922 2.69873 16.5078C2.85498 17.0234 3.07633 17.4635 3.36279 17.8281C3.64925 18.1875 3.9904 18.4609 4.38623 18.6484C4.78727 18.8359 5.22998 18.9297 5.71436 18.9297C6.25081 18.9297 6.68571 18.8854 7.01904 18.7969C7.35238 18.7031 7.61279 18.5938 7.80029 18.4688C7.98779 18.3385 8.13102 18.2161 8.22998 18.1016V15.5547H5.59717V14.3359H9.72998ZM13.5815 11.5469V20H12.1284V11.5469H13.5815ZM12.019 9.30469C12.019 9.07031 12.0894 8.8724 12.23 8.71094C12.3758 8.54948 12.5894 8.46875 12.8706 8.46875C13.1466 8.46875 13.3576 8.54948 13.5034 8.71094C13.6545 8.8724 13.73 9.07031 13.73 9.30469C13.73 9.52865 13.6545 9.72135 13.5034 9.88281C13.3576 10.0391 13.1466 10.1172 12.8706 10.1172C12.5894 10.1172 12.3758 10.0391 12.23 9.88281C12.0894 9.72135 12.019 9.52865 12.019 9.30469ZM15.519 15.8672V15.6875C15.519 15.0781 15.6076 14.513 15.7847 13.9922C15.9618 13.4661 16.217 13.0104 16.5503 12.625C16.8836 12.2344 17.2873 11.9323 17.7612 11.7188C18.2352 11.5 18.7664 11.3906 19.355 11.3906C19.9487 11.3906 20.4826 11.5 20.9565 11.7188C21.4357 11.9323 21.842 12.2344 22.1753 12.625C22.5138 13.0104 22.7716 13.4661 22.9487 13.9922C23.1258 14.513 23.2144 15.0781 23.2144 15.6875V15.8672C23.2144 16.4766 23.1258 17.0417 22.9487 17.5625C22.7716 18.0833 22.5138 18.5391 22.1753 18.9297C21.842 19.3151 21.4383 19.6172 20.9644 19.8359C20.4956 20.0495 19.9644 20.1562 19.3706 20.1562C18.7769 20.1562 18.243 20.0495 17.769 19.8359C17.2951 19.6172 16.8888 19.3151 16.5503 18.9297C16.217 18.5391 15.9618 18.0833 15.7847 17.5625C15.6076 17.0417 15.519 16.4766 15.519 15.8672ZM16.9644 15.6875V15.8672C16.9644 16.2891 17.0138 16.6875 17.1128 17.0625C17.2118 17.4323 17.3602 17.7604 17.5581 18.0469C17.7612 18.3333 18.0138 18.5599 18.3159 18.7266C18.618 18.888 18.9696 18.9688 19.3706 18.9688C19.7664 18.9688 20.1128 18.888 20.4097 18.7266C20.7118 18.5599 20.9618 18.3333 21.1597 18.0469C21.3576 17.7604 21.506 17.4323 21.605 17.0625C21.7091 16.6875 21.7612 16.2891 21.7612 15.8672V15.6875C21.7612 15.2708 21.7091 14.8776 21.605 14.5078C21.506 14.1328 21.355 13.8021 21.1519 13.5156C20.9539 13.224 20.7039 12.9948 20.4019 12.8281C20.105 12.6615 19.756 12.5781 19.355 12.5781C18.9591 12.5781 18.6102 12.6615 18.3081 12.8281C18.0112 12.9948 17.7612 13.224 17.5581 13.5156C17.3602 13.8021 17.2118 14.1328 17.1128 14.5078C17.0138 14.8776 16.9644 15.2708 16.9644 15.6875ZM19.8394 10.1719H18.8003L18.7925 8.98438C19.0581 8.96875 19.2743 8.94271 19.4409 8.90625C19.6076 8.86458 19.73 8.80469 19.8081 8.72656C19.8862 8.64323 19.9253 8.53385 19.9253 8.39844C19.9253 8.28906 19.8914 8.19792 19.8237 8.125C19.756 8.04688 19.6623 7.98438 19.5425 7.9375C19.4227 7.88542 19.2847 7.84896 19.1284 7.82812C18.9722 7.80729 18.8055 7.79688 18.6284 7.79688L18.6831 6.96875C19.0685 6.96875 19.4071 7.0026 19.6987 7.07031C19.9956 7.13802 20.243 7.23698 20.4409 7.36719C20.644 7.4974 20.7951 7.65365 20.894 7.83594C20.9982 8.01302 21.0503 8.21094 21.0503 8.42969C21.0503 8.82552 20.9253 9.11458 20.6753 9.29688C20.4253 9.47396 20.1493 9.58333 19.8472 9.625L19.8394 10.1719ZM30.4409 8V20H28.9956V8H30.4409ZM30.0972 15.4531L29.4956 15.4297C29.5008 14.8516 29.5868 14.3177 29.7534 13.8281C29.9201 13.3333 30.1545 12.9036 30.4565 12.5391C30.7586 12.1745 31.118 11.8932 31.5347 11.6953C31.9565 11.4922 32.4227 11.3906 32.9331 11.3906C33.3498 11.3906 33.7248 11.4479 34.0581 11.5625C34.3914 11.6719 34.6753 11.849 34.9097 12.0938C35.1493 12.3385 35.3315 12.6562 35.4565 13.0469C35.5815 13.4323 35.644 13.9036 35.644 14.4609V20H34.1909V14.4453C34.1909 14.0026 34.1258 13.6484 33.9956 13.3828C33.8654 13.112 33.6753 12.9167 33.4253 12.7969C33.1753 12.6719 32.868 12.6094 32.5034 12.6094C32.144 12.6094 31.8159 12.6849 31.519 12.8359C31.2274 12.987 30.9748 13.1953 30.7612 13.4609C30.5529 13.7266 30.3888 14.0312 30.269 14.375C30.1545 14.7135 30.0972 15.0729 30.0972 15.4531ZM42.7925 18.5547V14.2031C42.7925 13.8698 42.7248 13.5807 42.5894 13.3359C42.4591 13.0859 42.2612 12.8932 41.9956 12.7578C41.73 12.6224 41.4019 12.5547 41.0112 12.5547C40.6466 12.5547 40.3263 12.6172 40.0503 12.7422C39.7795 12.8672 39.5659 13.0312 39.4097 13.2344C39.2586 13.4375 39.1831 13.6562 39.1831 13.8906H37.7378C37.7378 13.5885 37.8159 13.2891 37.9722 12.9922C38.1284 12.6953 38.3524 12.4271 38.644 12.1875C38.9409 11.9427 39.2951 11.75 39.7065 11.6094C40.1232 11.4635 40.5868 11.3906 41.0972 11.3906C41.7118 11.3906 42.2534 11.4948 42.7222 11.7031C43.1961 11.9115 43.5659 12.2266 43.8315 12.6484C44.1024 13.0651 44.2378 13.5885 44.2378 14.2188V18.1562C44.2378 18.4375 44.2612 18.737 44.3081 19.0547C44.3602 19.3724 44.4357 19.6458 44.5347 19.875V20H43.0269C42.9539 19.8333 42.8966 19.612 42.855 19.3359C42.8133 19.0547 42.7925 18.7943 42.7925 18.5547ZM43.0425 14.875L43.0581 15.8906H41.5972C41.1857 15.8906 40.8185 15.9245 40.4956 15.9922C40.1727 16.0547 39.9019 16.151 39.6831 16.2812C39.4644 16.4115 39.2977 16.5755 39.1831 16.7734C39.0685 16.9661 39.0112 17.1927 39.0112 17.4531C39.0112 17.7188 39.0711 17.9609 39.1909 18.1797C39.3107 18.3984 39.4904 18.5729 39.73 18.7031C39.9748 18.8281 40.2743 18.8906 40.6284 18.8906C41.0711 18.8906 41.4618 18.7969 41.8003 18.6094C42.1388 18.4219 42.4071 18.1927 42.605 17.9219C42.8081 17.651 42.9175 17.388 42.9331 17.1328L43.5503 17.8281C43.5138 18.0469 43.4149 18.2891 43.2534 18.5547C43.092 18.8203 42.8758 19.0755 42.605 19.3203C42.3394 19.5599 42.0216 19.7604 41.6519 19.9219C41.2873 20.0781 40.8758 20.1562 40.4175 20.1562C39.8446 20.1562 39.342 20.0443 38.9097 19.8203C38.4826 19.5964 38.1493 19.2969 37.9097 18.9219C37.6753 18.5417 37.5581 18.1172 37.5581 17.6484C37.5581 17.1953 37.6466 16.7969 37.8237 16.4531C38.0008 16.1042 38.256 15.8151 38.5894 15.5859C38.9227 15.3516 39.3237 15.1745 39.7925 15.0547C40.2612 14.9349 40.7847 14.875 41.3628 14.875H43.0425ZM40.5659 8L42.0737 10.2969H40.8315L38.8159 8H40.5659ZM47.9565 13.3516V20H46.5112V11.5469H47.8784L47.9565 13.3516ZM47.6128 15.4531L47.0112 15.4297C47.0164 14.8516 47.1024 14.3177 47.269 13.8281C47.4357 13.3333 47.6701 12.9036 47.9722 12.5391C48.2743 12.1745 48.6336 11.8932 49.0503 11.6953C49.4722 11.4922 49.9383 11.3906 50.4487 11.3906C50.8654 11.3906 51.2404 11.4479 51.5737 11.5625C51.9071 11.6719 52.1909 11.849 52.4253 12.0938C52.6649 12.3385 52.8472 12.6562 52.9722 13.0469C53.0972 13.4323 53.1597 13.9036 53.1597 14.4609V20H51.7065V14.4453C51.7065 14.0026 51.6414 13.6484 51.5112 13.3828C51.381 13.112 51.1909 12.9167 50.9409 12.7969C50.6909 12.6719 50.3836 12.6094 50.019 12.6094C49.6597 12.6094 49.3315 12.6849 49.0347 12.8359C48.743 12.987 48.4904 13.1953 48.2769 13.4609C48.0685 13.7266 47.9045 14.0312 47.7847 14.375C47.6701 14.7135 47.6128 15.0729 47.6128 15.4531ZM60.8315 11.5469H62.144V19.8203C62.144 20.5651 61.993 21.2005 61.6909 21.7266C61.3888 22.2526 60.967 22.651 60.4253 22.9219C59.8888 23.1979 59.269 23.3359 58.5659 23.3359C58.2743 23.3359 57.9305 23.2891 57.5347 23.1953C57.144 23.1068 56.7586 22.9531 56.3784 22.7344C56.0034 22.5208 55.6883 22.2318 55.4331 21.8672L56.1909 21.0078C56.5451 21.4349 56.9149 21.7318 57.3003 21.8984C57.6909 22.0651 58.0763 22.1484 58.4565 22.1484C58.9149 22.1484 59.3107 22.0625 59.644 21.8906C59.9774 21.7188 60.2352 21.4635 60.4175 21.125C60.605 20.7917 60.6987 20.3802 60.6987 19.8906V13.4062L60.8315 11.5469ZM55.0112 15.8672V15.7031C55.0112 15.0573 55.0868 14.4714 55.2378 13.9453C55.394 13.4141 55.6154 12.9583 55.9019 12.5781C56.1935 12.1979 56.5451 11.9062 56.9565 11.7031C57.368 11.4948 57.8315 11.3906 58.3472 11.3906C58.8784 11.3906 59.342 11.4844 59.7378 11.6719C60.1388 11.8542 60.4774 12.1224 60.7534 12.4766C61.0347 12.8255 61.256 13.2474 61.4175 13.7422C61.5789 14.237 61.6909 14.7969 61.7534 15.4219V16.1406C61.6961 16.7604 61.5841 17.3177 61.4175 17.8125C61.256 18.3073 61.0347 18.7292 60.7534 19.0781C60.4774 19.4271 60.1388 19.6953 59.7378 19.8828C59.3368 20.0651 58.868 20.1562 58.3315 20.1562C57.8263 20.1562 57.368 20.0495 56.9565 19.8359C56.5503 19.6224 56.2013 19.3229 55.9097 18.9375C55.618 18.5521 55.394 18.099 55.2378 17.5781C55.0868 17.0521 55.0112 16.4818 55.0112 15.8672ZM56.4565 15.7031V15.8672C56.4565 16.2891 56.4982 16.6849 56.5815 17.0547C56.6701 17.4245 56.8029 17.75 56.98 18.0312C57.1623 18.3125 57.394 18.5339 57.6753 18.6953C57.9565 18.8516 58.2925 18.9297 58.6831 18.9297C59.1623 18.9297 59.5581 18.8281 59.8706 18.625C60.1831 18.4219 60.4305 18.1536 60.6128 17.8203C60.8003 17.487 60.9461 17.125 61.0503 16.7344V14.8516C60.993 14.5651 60.9045 14.2891 60.7847 14.0234C60.6701 13.7526 60.519 13.513 60.3315 13.3047C60.1493 13.0911 59.9227 12.9219 59.6519 12.7969C59.381 12.6719 59.0633 12.6094 58.6987 12.6094C58.3029 12.6094 57.9618 12.6927 57.6753 12.8594C57.394 13.0208 57.1623 13.2448 56.98 13.5312C56.8029 13.8125 56.6701 14.1406 56.5815 14.5156C56.4982 14.8854 56.4565 15.2812 56.4565 15.7031Z" fill="black"/>
<path d="M102.394 29.0139L100.409 7.30063C100.367 6.84607 100.033 6.50092 99.6353 6.50092H95.9036V5.52382C95.9036 2.4781 93.7458 0 91.0937 0C88.4415 0 86.2837 2.4781 86.2837 5.52382V6.50092H82.552C82.154 6.50092 81.8204 6.84607 81.7788 7.30063L79.7933 29.0139C79.7704 29.2655 79.8416 29.5165 79.9889 29.7047C80.1363 29.8926 80.3464 29.9999 80.5666 29.9999H101.62C101.841 29.9999 102.051 29.8926 102.198 29.7047C102.346 29.5165 102.417 29.2655 102.394 29.0139ZM87.8386 5.52382C87.8386 3.46275 89.2989 1.78573 91.0937 1.78573C92.8884 1.78573 94.3487 3.46275 94.3487 5.52382V6.50092H87.8386V5.52382ZM81.43 28.2142L83.2522 8.28665H86.2837V10.2543C86.2837 10.7474 86.6319 11.1472 87.0611 11.1472C87.4904 11.1472 87.8386 10.7474 87.8386 10.2543V8.28665H94.3487V10.2543C94.3487 10.7474 94.6969 11.1472 95.1261 11.1472C95.5554 11.1472 95.9036 10.7474 95.9036 10.2543V8.28665H98.9351L100.757 28.2142H81.43Z" fill="black"/>
<rect x="94.3299" width="15.6735" height="18" rx="7.83673" fill="#EB0000"/>
<path d="M105.753 7.40625V9.14062C105.753 10.0729 105.669 10.8594 105.503 11.5C105.336 12.1406 105.096 12.6562 104.784 13.0469C104.471 13.4375 104.094 13.7214 103.651 13.8984C103.214 14.0703 102.719 14.1562 102.167 14.1562C101.729 14.1562 101.326 14.1016 100.956 13.9922C100.586 13.8828 100.253 13.7083 99.9557 13.4688C99.6641 13.224 99.4141 12.9062 99.2057 12.5156C98.9974 12.125 98.8385 11.651 98.7292 11.0938C98.6198 10.5365 98.5651 9.88542 98.5651 9.14062V7.40625C98.5651 6.47396 98.6484 5.69271 98.8151 5.0625C98.987 4.43229 99.2292 3.92708 99.5417 3.54688C99.8542 3.16146 100.229 2.88542 100.667 2.71875C101.109 2.55208 101.604 2.46875 102.151 2.46875C102.594 2.46875 103 2.52344 103.37 2.63281C103.745 2.73698 104.078 2.90625 104.37 3.14062C104.661 3.36979 104.909 3.67708 105.112 4.0625C105.32 4.44271 105.479 4.90885 105.589 5.46094C105.698 6.01302 105.753 6.66146 105.753 7.40625ZM104.299 9.375V7.16406C104.299 6.65365 104.268 6.20573 104.206 5.82031C104.148 5.42969 104.062 5.09635 103.948 4.82031C103.833 4.54427 103.687 4.32031 103.51 4.14844C103.339 3.97656 103.138 3.85156 102.909 3.77344C102.685 3.6901 102.432 3.64844 102.151 3.64844C101.807 3.64844 101.503 3.71354 101.237 3.84375C100.971 3.96875 100.747 4.16927 100.565 4.44531C100.388 4.72135 100.253 5.08333 100.159 5.53125C100.065 5.97917 100.018 6.52344 100.018 7.16406V9.375C100.018 9.88542 100.047 10.3359 100.104 10.7266C100.167 11.1172 100.258 11.4557 100.378 11.7422C100.497 12.0234 100.643 12.2552 100.815 12.4375C100.987 12.6198 101.185 12.7552 101.409 12.8438C101.638 12.9271 101.891 12.9688 102.167 12.9688C102.521 12.9688 102.831 12.901 103.096 12.7656C103.362 12.6302 103.583 12.4193 103.76 12.1328C103.943 11.8411 104.078 11.4688 104.167 11.0156C104.255 10.5573 104.299 10.0104 104.299 9.375Z" fill="white"/>
</svg>
